<svg version="1.1" id="Layer_1" xmlns="http://www.w3.org/2000/svg" xmlns:xlink="http://www.w3.org/1999/xlink" x="0px" y="0px"
	 width="100%" viewBox="0 0 512 512" enable-background="new 0 0 512 512" xml:space="preserve">
<path fill="#E4F2F9" opacity="1.000000" stroke="none" 
	d="
M257.000000,513.000000 
	C202.645767,513.000000 148.291550,513.000000 93.765701,512.689697 
	C88.764069,509.594330 83.583687,507.271637 79.174469,503.931091 
	C68.893990,496.142273 62.128281,485.752563 62.112007,472.654327 
	C61.933456,328.935760 61.998573,185.216858 62.016163,41.498055 
	C62.016384,39.692532 61.971226,37.809006 62.434956,36.093739 
	C66.598511,20.693253 75.358353,9.269555 90.750496,3.585365 
	C91.690399,3.238267 92.258766,1.885073 93.000000,1.000002 
	C147.354233,1.000000 201.708450,1.000000 256.531342,1.468657 
	C257.011139,58.552376 257.022278,115.167442 256.569763,171.870667 
	C213.622986,171.972656 171.139771,171.973755 128.656601,172.008850 
	C117.390282,172.018143 112.005875,177.465591 112.004684,188.787827 
	C111.996414,267.590454 111.996468,346.393097 112.004585,425.195740 
	C112.005753,436.513977 117.421326,441.990051 128.600647,441.995514 
	C155.423523,442.008606 182.246445,441.974670 209.069275,442.009430 
	C225.057373,442.030151 241.045334,442.144958 257.022583,442.672363 
	C257.007843,466.418182 257.003937,489.709106 257.000000,513.000000 
z"/>
<path fill="#BDE0F1" opacity="1.000000" stroke="none" 
	d="
M257.468658,513.000000 
	C257.003937,489.709106 257.007843,466.418182 257.031982,442.565247 
	C257.052216,442.003174 256.973236,441.803040 257.437195,441.885559 
	C300.213318,441.978699 342.527802,441.759430 384.835663,442.189697 
	C393.520508,442.278046 402.125732,435.208649 402.101654,424.976654 
	C401.916595,346.349487 402.002899,267.721710 401.996490,189.094116 
	C401.995636,178.346268 395.648560,172.006027 384.894562,172.003494 
	C347.246613,171.994644 309.598633,171.992752 271.950684,172.008728 
	C266.958130,172.010849 261.965607,172.131317 257.012634,172.096924 
	C257.052155,171.996857 257.033386,171.782501 257.033386,171.782501 
	C257.022278,115.167442 257.011139,58.552376 257.000000,1.468657 
	C281.687561,1.000000 306.375122,1.000000 331.542236,1.468568 
	C332.014252,36.203499 331.994629,70.469872 332.006622,104.736229 
	C332.010132,114.711166 338.218170,120.984642 348.111664,120.991875 
	C380.714691,121.015732 413.317749,121.017418 445.920654,120.955307 
	C447.630890,120.952049 449.339905,120.281647 451.420654,120.154846 
	C451.861206,121.546852 451.991241,122.705818 451.991394,123.864799 
	C452.004517,240.565689 452.010345,357.266571 451.982574,473.967468 
	C451.982208,475.396423 451.641022,476.849701 451.293121,478.250427 
	C447.444458,493.747406 438.391998,504.695435 423.270935,510.415314 
	C422.323608,510.773712 421.748352,512.115662 421.000000,513.000000 
	C366.645782,513.000000 312.291534,513.000000 257.468658,513.000000 
z"/>
<path fill="#78BEE2" opacity="1.000000" stroke="none" 
	d="
M333.666687,1.000004 
	C334.973389,2.453011 335.738190,4.114205 336.950470,5.328803 
	C374.888336,43.339439 412.869873,81.306549 450.947083,119.601067 
	C449.339905,120.281647 447.630890,120.952049 445.920654,120.955307 
	C413.317749,121.017418 380.714691,121.015732 348.111664,120.991875 
	C338.218170,120.984642 332.010132,114.711166 332.006622,104.736229 
	C331.994629,70.469872 332.014252,36.203499 332.010925,1.468568 
	C332.444458,1.000000 332.888885,1.000000 333.666687,1.000004 
z"/>
<path fill="#5F5F82" opacity="1.000000" stroke="none" 
	d="
M257.042786,442.110291 
	C241.045334,442.144958 225.057373,442.030151 209.069275,442.009430 
	C182.246445,441.974670 155.423523,442.008606 128.600647,441.995514 
	C117.421326,441.990051 112.005753,436.513977 112.004585,425.195740 
	C111.996468,346.393097 111.996414,267.590454 112.004684,188.787827 
	C112.005875,177.465591 117.390282,172.018143 128.656601,172.008850 
	C171.139771,171.973755 213.622986,171.972656 256.569763,171.870667 
	C257.033386,171.782501 257.052155,171.996857 257.021088,172.552521 
	C256.984406,262.673126 256.978821,352.238098 256.973236,441.803040 
	C256.973236,441.803040 257.052216,442.003174 257.042786,442.110291 
M183.500000,232.000000 
	C206.231781,232.000000 228.963547,232.000000 251.674698,232.000000 
	C251.674698,221.615387 251.674698,212.037399 251.674698,202.401367 
	C215.002625,202.401367 178.657272,202.401367 142.325150,202.401367 
	C142.325150,212.384155 142.325150,221.962311 142.325150,232.000000 
	C155.930008,232.000000 169.215012,232.000000 183.500000,232.000000 
M221.500000,292.000000 
	C231.581085,292.000000 241.662170,292.000000 251.755798,292.000000 
	C251.755798,281.685394 251.755798,272.094788 251.755798,262.272522 
	C215.157806,262.272522 178.804169,262.272522 142.332291,262.272522 
	C142.332291,272.256531 142.332291,281.965057 142.332291,292.000000 
	C168.608841,292.000000 194.554413,292.000000 221.500000,292.000000 
M154.511398,382.000000 
	C150.424728,382.000000 146.338058,382.000000 142.247375,382.000000 
	C142.247375,392.320923 142.247375,401.911652 142.247375,411.723907 
	C178.848862,411.723907 215.202759,411.723907 251.664062,411.723907 
	C251.664062,401.736084 251.664062,392.027405 251.664062,382.000000 
	C219.389038,382.000000 187.448883,382.000000 154.511398,382.000000 
M252.000000,344.427490 
	C252.000000,337.014771 252.000000,329.602081 252.000000,322.245239 
	C214.980408,322.245239 178.742249,322.245239 142.305786,322.245239 
	C142.305786,332.200745 142.305786,341.909271 142.305786,351.662598 
	C178.968262,351.662598 215.323929,351.662598 252.000000,351.662598 
	C252.000000,349.353760 252.000000,347.379822 252.000000,344.427490 
z"/>
<path fill="#3C3C55" opacity="1.000000" stroke="none" 
	d="
M257.437195,441.885559 
	C256.978821,352.238098 256.984406,262.673126 256.981567,172.652588 
	C261.965607,172.131317 266.958130,172.010849 271.950684,172.008728 
	C309.598633,171.992752 347.246613,171.994644 384.894562,172.003494 
	C395.648560,172.006027 401.995636,178.346268 401.996490,189.094116 
	C402.002899,267.721710 401.916595,346.349487 402.101654,424.976654 
	C402.125732,435.208649 393.520508,442.278046 384.835663,442.189697 
	C342.527802,441.759430 300.213318,441.978699 257.437195,441.885559 
M342.000336,385.686646 
	C342.000336,394.300476 342.000336,402.914307 342.000336,411.716919 
	C352.187592,411.716919 361.903015,411.716919 371.669312,411.716919 
	C371.669312,401.714264 371.669312,391.997986 371.669312,382.002411 
	C362.536865,382.002411 353.730621,381.915863 344.931213,382.122101 
	C343.935303,382.145447 342.978027,383.817993 342.000336,385.686646 
M312.000000,406.380615 
	C312.000000,398.303223 312.000000,390.225861 312.000000,382.258270 
	C301.623657,382.258270 292.025574,382.258270 282.304993,382.258270 
	C282.304993,392.234070 282.304993,401.949158 282.304993,411.825043 
	C292.206848,411.825043 301.803528,411.825043 311.729523,411.825043 
	C311.825226,410.242004 311.912598,408.796387 312.000000,406.380615 
M364.429871,352.000000 
	C366.858490,352.000000 369.287109,352.000000 371.627808,352.000000 
	C371.627808,341.626770 371.627808,331.910309 371.627808,322.241333 
	C361.656677,322.241333 352.059692,322.241333 342.287109,322.241333 
	C342.287109,332.198486 342.287109,341.912689 342.287109,352.000000 
	C349.529297,352.000000 356.489227,352.000000 364.429871,352.000000 
M299.489136,322.000000 
	C293.733490,322.000000 287.977814,322.000000 282.395569,322.000000 
	C282.395569,332.422516 282.395569,342.139435 282.395569,351.736328 
	C292.389893,351.736328 301.986694,351.736328 311.691589,351.736328 
	C311.691589,341.756226 311.691589,332.042419 311.691589,322.000000 
	C307.753998,322.000000 304.117828,322.000000 299.489136,322.000000 
M355.506653,262.000000 
	C351.085236,262.000000 346.663818,262.000000 342.390625,262.000000 
	C342.390625,272.413147 342.390625,282.129517 342.390625,291.741455 
	C352.379822,291.741455 361.976471,291.741455 371.696960,291.741455 
	C371.696960,281.766937 371.696960,272.053406 371.696960,262.000000 
	C366.433899,262.000000 361.467743,262.000000 355.506653,262.000000 
M308.313354,262.000336 
	C299.699524,262.000336 291.085693,262.000336 282.283081,262.000336 
	C282.283081,272.187592 282.283081,281.903015 282.283081,291.669312 
	C292.285736,291.669312 302.002014,291.669312 311.997589,291.669312 
	C311.997589,282.536865 312.084137,273.730621 311.877869,264.931213 
	C311.854523,263.935303 310.182007,262.978058 308.313354,262.000336 
M371.999969,227.337677 
	C371.999969,218.954559 371.999969,210.571442 371.999969,202.288422 
	C361.597412,202.288422 352.031433,202.288422 342.335938,202.288422 
	C342.335938,212.261993 342.335938,221.944351 342.335938,231.995483 
	C351.437622,231.995483 360.210266,231.895905 368.978424,232.050201 
	C371.989807,232.103210 372.159454,230.480759 371.999969,227.337677 
M302.460388,232.000000 
	C305.542542,232.000000 308.624664,232.000000 311.588379,232.000000 
	C311.588379,221.577896 311.588379,211.894897 311.588379,202.280365 
	C301.610352,202.280365 292.046326,202.280365 282.325134,202.280365 
	C282.325134,212.243469 282.325134,221.923859 282.325134,232.000000 
	C288.921539,232.000000 295.197388,232.000000 302.460388,232.000000 
z"/>
<path fill="#FF7350" opacity="1.000000" stroke="none" 
	d="
M183.000000,232.000000 
	C169.215012,232.000000 155.930008,232.000000 142.325150,232.000000 
	C142.325150,221.962311 142.325150,212.384155 142.325150,202.401367 
	C178.657272,202.401367 215.002625,202.401367 251.674698,202.401367 
	C251.674698,212.037399 251.674698,221.615387 251.674698,232.000000 
	C228.963547,232.000000 206.231781,232.000000 183.000000,232.000000 
z"/>
<path fill="#E4F2F9" opacity="1.000000" stroke="none" 
	d="
M221.000000,292.000000 
	C194.554413,292.000000 168.608841,292.000000 142.332291,292.000000 
	C142.332291,281.965057 142.332291,272.256531 142.332291,262.272522 
	C178.804169,262.272522 215.157806,262.272522 251.755798,262.272522 
	C251.755798,272.094788 251.755798,281.685394 251.755798,292.000000 
	C241.662170,292.000000 231.581085,292.000000 221.000000,292.000000 
z"/>
<path fill="#E4F2F9" opacity="1.000000" stroke="none" 
	d="
M155.010056,382.000000 
	C187.448883,382.000000 219.389038,382.000000 251.664062,382.000000 
	C251.664062,392.027405 251.664062,401.736084 251.664062,411.723907 
	C215.202759,411.723907 178.848862,411.723907 142.247375,411.723907 
	C142.247375,401.911652 142.247375,392.320923 142.247375,382.000000 
	C146.338058,382.000000 150.424728,382.000000 155.010056,382.000000 
z"/>
<path fill="#E4F2F9" opacity="1.000000" stroke="none" 
	d="
M252.000000,344.916687 
	C252.000000,347.379822 252.000000,349.353760 252.000000,351.662598 
	C215.323929,351.662598 178.968262,351.662598 142.305786,351.662598 
	C142.305786,341.909271 142.305786,332.200745 142.305786,322.245239 
	C178.742249,322.245239 214.980408,322.245239 252.000000,322.245239 
	C252.000000,329.602081 252.000000,337.014771 252.000000,344.916687 
z"/>
<path fill="#BDE0F1" opacity="1.000000" stroke="none" 
	d="
M342.001587,385.206238 
	C342.978027,383.817993 343.935303,382.145447 344.931213,382.122101 
	C353.730621,381.915863 362.536865,382.002411 371.669312,382.002411 
	C371.669312,391.997986 371.669312,401.714264 371.669312,411.716919 
	C361.903015,411.716919 352.187592,411.716919 342.000336,411.716919 
	C342.000336,402.914307 342.000336,394.300476 342.001587,385.206238 
z"/>
<path fill="#BDE0F1" opacity="1.000000" stroke="none" 
	d="
M312.000000,406.865692 
	C311.912598,408.796387 311.825226,410.242004 311.729523,411.825043 
	C301.803528,411.825043 292.206848,411.825043 282.304993,411.825043 
	C282.304993,401.949158 282.304993,392.234070 282.304993,382.258270 
	C292.025574,382.258270 301.623657,382.258270 312.000000,382.258270 
	C312.000000,390.225861 312.000000,398.303223 312.000000,406.865692 
z"/>
<path fill="#BDE0F1" opacity="1.000000" stroke="none" 
	d="
M363.939514,352.000000 
	C356.489227,352.000000 349.529297,352.000000 342.287109,352.000000 
	C342.287109,341.912689 342.287109,332.198486 342.287109,322.241333 
	C352.059692,322.241333 361.656677,322.241333 371.627808,322.241333 
	C371.627808,331.910309 371.627808,341.626770 371.627808,352.000000 
	C369.287109,352.000000 366.858490,352.000000 363.939514,352.000000 
z"/>
<path fill="#BDE0F1" opacity="1.000000" stroke="none" 
	d="
M299.985382,322.000000 
	C304.117828,322.000000 307.753998,322.000000 311.691589,322.000000 
	C311.691589,332.042419 311.691589,341.756226 311.691589,351.736328 
	C301.986694,351.736328 292.389893,351.736328 282.395569,351.736328 
	C282.395569,342.139435 282.395569,332.422516 282.395569,322.000000 
	C287.977814,322.000000 293.733490,322.000000 299.985382,322.000000 
z"/>
<path fill="#BDE0F1" opacity="1.000000" stroke="none" 
	d="
M356.004120,262.000000 
	C361.467743,262.000000 366.433899,262.000000 371.696960,262.000000 
	C371.696960,272.053406 371.696960,281.766937 371.696960,291.741455 
	C361.976471,291.741455 352.379822,291.741455 342.390625,291.741455 
	C342.390625,282.129517 342.390625,272.413147 342.390625,262.000000 
	C346.663818,262.000000 351.085236,262.000000 356.004120,262.000000 
z"/>
<path fill="#BDE0F1" opacity="1.000000" stroke="none" 
	d="
M308.793762,262.001587 
	C310.182007,262.978058 311.854523,263.935303 311.877869,264.931213 
	C312.084137,273.730621 311.997589,282.536865 311.997589,291.669312 
	C302.002014,291.669312 292.285736,291.669312 282.283081,291.669312 
	C282.283081,281.903015 282.283081,272.187592 282.283081,262.000336 
	C291.085693,262.000336 299.699524,262.000336 308.793762,262.001587 
z"/>
<path fill="#0097FF" opacity="1.000000" stroke="none" 
	d="
M371.999573,227.816360 
	C372.159454,230.480759 371.989807,232.103210 368.978424,232.050201 
	C360.210266,231.895905 351.437622,231.995483 342.335938,231.995483 
	C342.335938,221.944351 342.335938,212.261993 342.335938,202.288422 
	C352.031433,202.288422 361.597412,202.288422 371.999969,202.288422 
	C371.999969,210.571442 371.999969,218.954559 371.999573,227.816360 
z"/>
<path fill="#0097FF" opacity="1.000000" stroke="none" 
	d="
M301.966797,232.000000 
	C295.197388,232.000000 288.921539,232.000000 282.325134,232.000000 
	C282.325134,221.923859 282.325134,212.243469 282.325134,202.280365 
	C292.046326,202.280365 301.610352,202.280365 311.588379,202.280365 
	C311.588379,211.894897 311.588379,221.577896 311.588379,232.000000 
	C308.624664,232.000000 305.542542,232.000000 301.966797,232.000000 
z"/>
</svg>
